STARTFONT 2.3
FONT -FontForge-Zen Loop-Book-R-Normal--11-110-72-72-P-35-ISO10646-1
SIZE 11 72 72  4
FONTBOUNDINGBOX 9 15 -1 -4
COMMENT "Generated by fontforge, http://fontforge.sourceforge.net"
COMMENT "Copyright 2021 The Zen-Loop Project Authors (https://github.com/googlefonts/zen-loop)"
STARTPROPERTIES 40
FOUNDRY "FontForge"
FAMILY_NAME "Zen Loop"
WEIGHT_NAME "Book"
SLANT "R"
SETWIDTH_NAME "Normal"
ADD_STYLE_NAME ""
PIXEL_SIZE 11
POINT_SIZE 110
RESOLUTION_X 72
RESOLUTION_Y 72
SPACING "P"
AVERAGE_WIDTH 35
CHARSET_REGISTRY "ISO10646"
CHARSET_ENCODING "1"
FONTNAME_REGISTRY ""
CHARSET_COLLECTIONS "ISO10646-1"
BITS_PER_PIXEL 4
FONT_NAME "ZenLoop-Regular"
FACE_NAME "Zen Loop Regular"
COPYRIGHT "Copyright 2021 The Zen-Loop Project Authors (https://github.com/googlefonts/zen-loop)"
FONT_VERSION "1.000; ttfautohint (v1.8.3)"
FONT_ASCENT 9
FONT_DESCENT 2
UNDERLINE_POSITION -2
UNDERLINE_THICKNESS 1
X_HEIGHT 5
CAP_HEIGHT 8
RAW_ASCENT 800
RAW_DESCENT 200
NORM_SPACE 3
RELATIVE_WEIGHT 40
RELATIVE_SETWIDTH 50
SUPERSCRIPT_X 0
SUPERSCRIPT_Y 3
SUPERSCRIPT_SIZE 6
SUBSCRIPT_X 0
SUBSCRIPT_Y 0
SUBSCRIPT_SIZE 6
AVG_LOWERCASE_WIDTH 30
AVG_UPPERCASE_WIDTH 43
ENDPROPERTIES
CHARS 248
STARTCHAR CR
ENCODING 13
SWIDTH 600 0
DWIDTH 7 0
BBX 1 1 0 0
BITMAP
00
ENDCHAR
STARTCHAR space
ENCODING 32
SWIDTH 240 0
DWIDTH 3 0
BBX 1 1 0 0
BITMAP
00
ENDCHAR
STARTCHAR exclam
ENCODING 33
SWIDTH 141 0
DWIDTH 2 0
BBX 1 9 0 0
BITMAP
30
40
40
40
40
40
20
10
30
ENDCHAR
STARTCHAR quotedbl
ENCODING 34
SWIDTH 195 0
DWIDTH 2 0
BBX 2 3 0 6
BITMAP
33
44
11
ENDCHAR
STARTCHAR numbersign
ENCODING 35
SWIDTH 454 0
DWIDTH 5 0
BBX 5 9 0 0
BITMAP
003120
022300
030400
174730
040400
040400
374710
032200
213000
ENDCHAR
STARTCHAR dollar
ENCODING 36
SWIDTH 356 0
DWIDTH 4 0
BBX 4 12 0 -2
BITMAP
0100
1651
3302
4300
1600
0430
0332
0304
4304
2752
0300
0100
ENDCHAR
STARTCHAR percent
ENCODING 37
SWIDTH 470 0
DWIDTH 5 0
BBX 5 9 0 0
BITMAP
242000
403110
403400
403400
143100
004420
016040
044040
031430
ENDCHAR
STARTCHAR ampersand
ENCODING 38
SWIDTH 520 0
DWIDTH 6 0
BBX 6 9 0 0
BITMAP
005400
031300
032300
007000
044050
224310
401600
400700
245141
ENDCHAR
STARTCHAR quotesingle
ENCODING 39
SWIDTH 121 0
DWIDTH 1 0
BBX 1 3 0 6
BITMAP
30
40
10
ENDCHAR
STARTCHAR parenleft
ENCODING 40
SWIDTH 233 0
DWIDTH 3 0
BBX 3 9 0 -1
BITMAP
0310
0500
0400
2100
3000
2100
0300
0400
0210
ENDCHAR
STARTCHAR parenright
ENCODING 41
SWIDTH 233 0
DWIDTH 3 0
BBX 2 9 0 0
BITMAP
40
12
04
04
04
04
04
22
30
ENDCHAR
STARTCHAR asterisk
ENCODING 42
SWIDTH 313 0
DWIDTH 3 0
BBX 3 3 0 6
BITMAP
0300
2740
0430
ENDCHAR
STARTCHAR plus
ENCODING 43
SWIDTH 577 0
DWIDTH 6 0
BBX 6 6 0 0
BITMAP
000300
000300
144643
000300
000300
000300
ENDCHAR
STARTCHAR comma
ENCODING 44
SWIDTH 145 0
DWIDTH 2 0
BBX 1 3 0 -2
BITMAP
10
40
40
ENDCHAR
STARTCHAR hyphen
ENCODING 45
SWIDTH 286 0
DWIDTH 3 0
BBX 3 1 0 3
BITMAP
2430
ENDCHAR
STARTCHAR period
ENCODING 46
SWIDTH 181 0
DWIDTH 2 0
BBX 2 1 0 0
BITMAP
22
ENDCHAR
STARTCHAR slash
ENCODING 47
SWIDTH 292 0
DWIDTH 3 0
BBX 4 10 0 -1
BITMAP
0031
0040
0040
0120
0400
0400
0300
3000
4000
3000
ENDCHAR
STARTCHAR zero
ENCODING 48
SWIDTH 378 0
DWIDTH 4 0
BBX 4 9 0 0
BITMAP
0551
3104
4004
4004
4004
3004
4004
3103
0550
ENDCHAR
STARTCHAR one
ENCODING 49
SWIDTH 303 0
DWIDTH 3 0
BBX 3 9 0 0
BITMAP
3600
0400
0400
0400
0400
0400
0400
0400
3740
ENDCHAR
STARTCHAR two
ENCODING 50
SWIDTH 343 0
DWIDTH 4 0
BBX 4 9 0 0
BITMAP
2550
2003
0003
0022
0040
0320
0400
4000
5442
ENDCHAR
STARTCHAR three
ENCODING 51
SWIDTH 377 0
DWIDTH 4 0
BBX 4 9 0 0
BITMAP
0541
1003
0003
0470
0524
0004
0003
0003
3441
ENDCHAR
STARTCHAR four
ENCODING 52
SWIDTH 389 0
DWIDTH 4 0
BBX 4 9 0 0
BITMAP
0030
0040
0310
0430
0330
3030
4464
0030
0030
ENDCHAR
STARTCHAR five
ENCODING 53
SWIDTH 372 0
DWIDTH 4 0
BBX 4 10 0 0
BITMAP
0002
0531
0300
0300
0740
4314
3103
0003
0004
3441
ENDCHAR
STARTCHAR six
ENCODING 54
SWIDTH 360 0
DWIDTH 4 0
BBX 4 9 0 0
BITMAP
0140
0400
0400
3100
5341
4104
4003
4004
1451
ENDCHAR
STARTCHAR seven
ENCODING 55
SWIDTH 321 0
DWIDTH 4 0
BBX 4 9 0 0
BITMAP
3461
0030
0030
0130
0300
0300
0300
2200
3000
ENDCHAR
STARTCHAR eight
ENCODING 56
SWIDTH 377 0
DWIDTH 4 0
BBX 4 9 0 0
BITMAP
1442
4004
4004
1432
0650
3213
4004
3003
1442
ENDCHAR
STARTCHAR nine
ENCODING 57
SWIDTH 360 0
DWIDTH 4 0
BBX 4 9 0 -1
BITMAP
1450
4004
3004
4014
1434
0013
0040
0040
0500
ENDCHAR
STARTCHAR colon
ENCODING 58
SWIDTH 181 0
DWIDTH 2 0
BBX 2 5 0 0
BITMAP
22
00
00
00
22
ENDCHAR
STARTCHAR semicolon
ENCODING 59
SWIDTH 165 0
DWIDTH 2 0
BBX 1 8 0 -2
BITMAP
10
30
00
00
00
10
40
40
ENDCHAR
STARTCHAR less
ENCODING 60
SWIDTH 482 0
DWIDTH 5 0
BBX 5 5 0 0
BITMAP
000230
024100
250000
004300
000130
ENDCHAR
STARTCHAR equal
ENCODING 61
SWIDTH 577 0
DWIDTH 6 0
BBX 6 3 0 2
BITMAP
144443
000000
144443
ENDCHAR
STARTCHAR greater
ENCODING 62
SWIDTH 482 0
DWIDTH 5 0
BBX 5 5 0 0
BITMAP
220000
024200
000350
004300
230000
ENDCHAR
STARTCHAR question
ENCODING 63
SWIDTH 300 0
DWIDTH 3 0
BBX 3 9 0 0
BITMAP
3430
1040
0040
0220
0400
0400
0200
0100
0300
ENDCHAR
STARTCHAR at
ENCODING 64
SWIDTH 748 0
DWIDTH 8 0
BBX 8 9 0 0
BITMAP
00444420
05004241
31031304
40040203
40315003
40416004
31325032
05344430
00444530
ENDCHAR
STARTCHAR A
ENCODING 65
SWIDTH 414 0
DWIDTH 5 0
BBX 5 9 0 0
BITMAP
006000
025000
044000
041200
040400
164500
400400
400310
300030
ENDCHAR
STARTCHAR B
ENCODING 66
SWIDTH 375 0
DWIDTH 4 0
BBX 4 9 0 0
BITMAP
4450
4003
4003
4434
4353
4004
4004
4004
4451
ENDCHAR
STARTCHAR C
ENCODING 67
SWIDTH 366 0
DWIDTH 4 0
BBX 4 9 0 0
BITMAP
0442
2200
4000
4000
4000
4000
4000
2200
0443
ENDCHAR
STARTCHAR D
ENCODING 68
SWIDTH 396 0
DWIDTH 4 0
BBX 4 9 0 0
BITMAP
4452
4004
4004
4004
4004
4004
4004
4004
4452
ENDCHAR
STARTCHAR E
ENCODING 69
SWIDTH 309 0
DWIDTH 3 0
BBX 3 9 0 0
BITMAP
4440
4000
4000
4000
4430
4000
4000
4000
4440
ENDCHAR
STARTCHAR F
ENCODING 70
SWIDTH 299 0
DWIDTH 3 0
BBX 3 9 0 0
BITMAP
4440
4000
4000
4000
4430
4000
4000
4000
3000
ENDCHAR
STARTCHAR G
ENCODING 71
SWIDTH 382 0
DWIDTH 4 0
BBX 4 9 0 0
BITMAP
0443
2200
4000
4000
4000
4024
4004
2204
0444
ENDCHAR
STARTCHAR H
ENCODING 72
SWIDTH 425 0
DWIDTH 5 0
BBX 4 9 0 0
BITMAP
3003
4003
4003
4003
4446
4003
4003
4003
3003
ENDCHAR
STARTCHAR I
ENCODING 73
SWIDTH 141 0
DWIDTH 2 0
BBX 1 9 0 0
BITMAP
30
40
40
40
40
40
40
40
30
ENDCHAR
STARTCHAR J
ENCODING 74
SWIDTH 142 0
DWIDTH 2 0
BBX 2 11 -1 -2
BITMAP
03
04
04
04
04
04
04
04
04
04
43
ENDCHAR
STARTCHAR K
ENCODING 75
SWIDTH 401 0
DWIDTH 4 0
BBX 4 9 0 0
BITMAP
1204
1222
1240
5750
5641
1204
1204
1204
1203
ENDCHAR
STARTCHAR L
ENCODING 76
SWIDTH 347 0
DWIDTH 4 0
BBX 4 9 0 0
BITMAP
3000
4000
4000
4000
4000
4000
4000
4000
4442
ENDCHAR
STARTCHAR M
ENCODING 77
SWIDTH 534 0
DWIDTH 6 0
BBX 6 9 0 0
BITMAP
070070
134540
214330
304431
305322
304313
304303
300004
300003
ENDCHAR
STARTCHAR N
ENCODING 78
SWIDTH 422 0
DWIDTH 5 0
BBX 4 9 0 0
BITMAP
4103
4404
4404
4214
4044
4044
4026
4007
3005
ENDCHAR
STARTCHAR O
ENCODING 79
SWIDTH 446 0
DWIDTH 5 0
BBX 5 9 0 0
BITMAP
044400
220310
400040
400040
400040
400040
400040
220310
044400
ENDCHAR
STARTCHAR P
ENCODING 80
SWIDTH 341 0
DWIDTH 4 0
BBX 4 9 0 0
BITMAP
4451
4004
4004
4022
4440
4000
4000
4000
3000
ENDCHAR
STARTCHAR Q
ENCODING 81
SWIDTH 446 0
DWIDTH 5 0
BBX 5 13 0 -4
BITMAP
044400
220310
400040
400040
400040
500040
450540
228310
059400
007000
006000
007000
003000
ENDCHAR
STARTCHAR R
ENCODING 82
SWIDTH 380 0
DWIDTH 4 0
BBX 4 9 0 0
BITMAP
4451
4004
4004
7432
6560
4012
4003
4004
3003
ENDCHAR
STARTCHAR S
ENCODING 83
SWIDTH 356 0
DWIDTH 4 0
BBX 4 9 0 0
BITMAP
2451
4001
4000
1300
0230
0032
0004
3004
2452
ENDCHAR
STARTCHAR T
ENCODING 84
SWIDTH 377 0
DWIDTH 4 0
BBX 4 9 0 0
BITMAP
4564
0130
0130
0130
0130
0130
0130
0130
0130
ENDCHAR
STARTCHAR U
ENCODING 85
SWIDTH 412 0
DWIDTH 5 0
BBX 4 9 0 0
BITMAP
3003
4004
4004
4004
4004
4004
3003
4004
1543
ENDCHAR
STARTCHAR V
ENCODING 86
SWIDTH 384 0
DWIDTH 4 0
BBX 4 9 0 0
BITMAP
3003
3003
3003
2103
0312
0330
0330
0330
0140
ENDCHAR
STARTCHAR W
ENCODING 87
SWIDTH 534 0
DWIDTH 6 0
BBX 6 9 0 0
BITMAP
300003
300004
300003
304313
304422
304331
214430
143440
060070
ENDCHAR
STARTCHAR X
ENCODING 88
SWIDTH 318 0
DWIDTH 4 0
BBX 4 9 0 0
BITMAP
3021
3140
0340
0610
0600
0430
2240
4030
3003
ENDCHAR
STARTCHAR Y
ENCODING 89
SWIDTH 370 0
DWIDTH 4 0
BBX 4 9 0 0
BITMAP
3004
4004
1321
0440
0330
0120
0120
0120
0120
ENDCHAR
STARTCHAR Z
ENCODING 90
SWIDTH 309 0
DWIDTH 3 0
BBX 4 9 0 0
BITMAP
3471
0040
0040
0210
0400
0300
2200
3000
6441
ENDCHAR
STARTCHAR bracketleft
ENCODING 91
SWIDTH 193 0
DWIDTH 2 0
BBX 2 11 0 -1
BITMAP
34
40
40
40
40
40
40
40
40
40
34
ENDCHAR
STARTCHAR backslash
ENCODING 92
SWIDTH 292 0
DWIDTH 3 0
BBX 4 10 0 -1
BITMAP
3000
4000
3100
0300
0400
0400
0120
0040
0040
0021
ENDCHAR
STARTCHAR bracketright
ENCODING 93
SWIDTH 193 0
DWIDTH 2 0
BBX 2 11 0 -1
BITMAP
43
03
03
03
03
03
03
03
03
03
43
ENDCHAR
STARTCHAR asciicircum
ENCODING 94
SWIDTH 416 0
DWIDTH 5 0
BBX 5 5 0 4
BITMAP
005000
044000
040400
310400
400120
ENDCHAR
STARTCHAR underscore
ENCODING 95
SWIDTH 556 0
DWIDTH 6 0
BBX 6 1 0 -1
BITMAP
244442
ENDCHAR
STARTCHAR grave
ENCODING 96
SWIDTH 201 0
DWIDTH 2 0
BBX 2 2 0 7
BITMAP
10
13
ENDCHAR
STARTCHAR a
ENCODING 97
SWIDTH 315 0
DWIDTH 3 0
BBX 4 6 0 0
BITMAP
2440
0030
0150
3440
4040
4461
ENDCHAR
STARTCHAR b
ENCODING 98
SWIDTH 298 0
DWIDTH 3 0
BBX 3 9 0 0
BITMAP
3000
4000
4000
4430
4030
4040
4040
4030
4430
ENDCHAR
STARTCHAR c
ENCODING 99
SWIDTH 275 0
DWIDTH 3 0
BBX 3 6 0 0
BITMAP
1430
4010
4000
4000
4010
1430
ENDCHAR
STARTCHAR d
ENCODING 100
SWIDTH 298 0
DWIDTH 3 0
BBX 3 9 0 0
BITMAP
0030
0030
0030
2460
4040
4030
4030
4030
2450
ENDCHAR
STARTCHAR e
ENCODING 101
SWIDTH 285 0
DWIDTH 3 0
BBX 3 6 0 0
BITMAP
1530
4040
4440
4000
4010
1430
ENDCHAR
STARTCHAR f
ENCODING 102
SWIDTH 178 0
DWIDTH 2 0
BBX 3 9 0 0
BITMAP
0520
2200
3100
6400
3100
3100
3100
3100
2100
ENDCHAR
STARTCHAR g
ENCODING 103
SWIDTH 302 0
DWIDTH 3 0
BBX 4 9 0 -2
BITMAP
0030
2560
4040
4040
2620
4200
1251
4004
5451
ENDCHAR
STARTCHAR h
ENCODING 104
SWIDTH 307 0
DWIDTH 3 0
BBX 3 9 0 0
BITMAP
3000
4000
4000
4440
4030
4040
4040
4040
3030
ENDCHAR
STARTCHAR i
ENCODING 105
SWIDTH 141 0
DWIDTH 2 0
BBX 1 9 0 0
BITMAP
30
30
00
30
40
40
40
40
30
ENDCHAR
STARTCHAR j
ENCODING 106
SWIDTH 141 0
DWIDTH 2 0
BBX 2 11 -1 -2
BITMAP
03
03
00
03
04
04
04
04
04
04
34
ENDCHAR
STARTCHAR k
ENCODING 107
SWIDTH 287 0
DWIDTH 3 0
BBX 3 9 0 0
BITMAP
3000
4000
4000
4030
4310
4600
4130
4040
3030
ENDCHAR
STARTCHAR l
ENCODING 108
SWIDTH 141 0
DWIDTH 2 0
BBX 1 9 0 0
BITMAP
30
40
40
40
40
40
40
40
30
ENDCHAR
STARTCHAR m
ENCODING 109
SWIDTH 407 0
DWIDTH 4 0
BBX 4 6 0 0
BITMAP
4416
4173
4163
4043
4003
3003
ENDCHAR
STARTCHAR n
ENCODING 110
SWIDTH 307 0
DWIDTH 3 0
BBX 3 6 0 0
BITMAP
4440
4030
4040
4040
4040
3030
ENDCHAR
STARTCHAR o
ENCODING 111
SWIDTH 309 0
DWIDTH 3 0
BBX 3 6 0 0
BITMAP
1430
4030
4030
4030
4030
1430
ENDCHAR
STARTCHAR p
ENCODING 112
SWIDTH 299 0
DWIDTH 3 0
BBX 3 9 0 -2
BITMAP
3000
6430
4030
4030
4030
4030
4430
4000
3000
ENDCHAR
STARTCHAR q
ENCODING 113
SWIDTH 286 0
DWIDTH 3 0
BBX 4 8 0 -2
BITMAP
2560
4040
4040
4040
4040
2560
0040
0041
ENDCHAR
STARTCHAR r
ENCODING 114
SWIDTH 277 0
DWIDTH 3 0
BBX 3 6 0 0
BITMAP
4440
4020
4000
4000
4000
3000
ENDCHAR
STARTCHAR s
ENCODING 115
SWIDTH 257 0
DWIDTH 3 0
BBX 3 6 0 0
BITMAP
3420
4000
2300
0320
1040
3430
ENDCHAR
STARTCHAR t
ENCODING 116
SWIDTH 207 0
DWIDTH 2 0
BBX 2 8 0 0
BITMAP
11
12
55
12
12
12
12
05
ENDCHAR
STARTCHAR u
ENCODING 117
SWIDTH 307 0
DWIDTH 3 0
BBX 3 6 0 0
BITMAP
3030
4040
4040
4040
3040
3460
ENDCHAR
STARTCHAR v
ENCODING 118
SWIDTH 285 0
DWIDTH 3 0
BBX 3 6 0 0
BITMAP
3030
3040
3040
1330
0700
0500
ENDCHAR
STARTCHAR w
ENCODING 119
SWIDTH 396 0
DWIDTH 4 0
BBX 4 6 0 0
BITMAP
3003
4134
4344
4154
4354
3316
ENDCHAR
STARTCHAR x
ENCODING 120
SWIDTH 244 0
DWIDTH 3 0
BBX 3 6 0 0
BITMAP
3130
3500
0600
1700
4310
3030
ENDCHAR
STARTCHAR y
ENCODING 121
SWIDTH 285 0
DWIDTH 3 0
BBX 3 8 0 -2
BITMAP
3030
4040
3040
1420
0700
0500
0400
4200
ENDCHAR
STARTCHAR z
ENCODING 122
SWIDTH 233 0
DWIDTH 3 0
BBX 3 6 0 0
BITMAP
2530
0300
0300
1300
3000
6410
ENDCHAR
STARTCHAR braceleft
ENCODING 123
SWIDTH 306 0
DWIDTH 3 0
BBX 4 11 0 -1
BITMAP
0041
0120
0120
0120
0210
2400
0220
0120
0120
0120
0041
ENDCHAR
STARTCHAR bar
ENCODING 124
SWIDTH 141 0
DWIDTH 2 0
BBX 1 10 0 -1
BITMAP
30
40
40
40
40
40
40
40
40
30
ENDCHAR
STARTCHAR braceright
ENCODING 125
SWIDTH 306 0
DWIDTH 3 0
BBX 3 11 0 -1
BITMAP
4200
0400
0300
0300
0300
0330
0300
0300
0300
0400
4200
ENDCHAR
STARTCHAR asciitilde
ENCODING 126
SWIDTH 433 0
DWIDTH 5 0
BBX 5 2 0 3
BITMAP
252020
203500
ENDCHAR
STARTCHAR uni00A0
ENCODING 160
SWIDTH 240 0
DWIDTH 3 0
BBX 1 1 0 0
BITMAP
00
ENDCHAR
STARTCHAR exclamdown
ENCODING 161
SWIDTH 141 0
DWIDTH 2 0
BBX 1 9 0 -3
BITMAP
30
10
20
40
40
40
40
40
30
ENDCHAR
STARTCHAR cent
ENCODING 162
SWIDTH 275 0
DWIDTH 3 0
BBX 3 8 0 -1
BITMAP
0300
0730
4320
4300
4300
4320
1730
0300
ENDCHAR
STARTCHAR sterling
ENCODING 163
SWIDTH 331 0
DWIDTH 4 0
BBX 4 9 0 0
BITMAP
3450
4001
4000
3100
2730
0400
0300
1300
7441
ENDCHAR
STARTCHAR currency
ENCODING 164
SWIDTH 506 0
DWIDTH 6 0
BBX 5 6 0 1
BITMAP
100010
164540
040040
030040
050140
244440
ENDCHAR
STARTCHAR yen
ENCODING 165
SWIDTH 370 0
DWIDTH 4 0
BBX 4 9 0 0
BITMAP
3004
3004
0331
0440
0330
1562
0120
1562
0120
ENDCHAR
STARTCHAR brokenbar
ENCODING 166
SWIDTH 141 0
DWIDTH 2 0
BBX 1 10 0 -1
BITMAP
30
40
40
30
00
20
40
40
40
30
ENDCHAR
STARTCHAR section
ENCODING 167
SWIDTH 303 0
DWIDTH 3 0
BBX 3 11 0 -1
BITMAP
2430
4030
4000
1500
4E80
7490
0010
0410
0040
2040
2530
ENDCHAR
STARTCHAR dieresis
ENCODING 168
SWIDTH 241 0
DWIDTH 3 0
BBX 2 2 0 7
BITMAP
33
33
ENDCHAR
STARTCHAR copyright
ENCODING 169
SWIDTH 772 0
DWIDTH 8 0
BBX 8 9 0 0
BITMAP
00244400
04325051
13030004
40030004
40030003
40030004
13024004
03200051
00244400
ENDCHAR
STARTCHAR ordfeminine
ENCODING 170
SWIDTH 231 0
DWIDTH 3 0
BBX 3 4 0 4
BITMAP
3500
0500
4500
4610
ENDCHAR
STARTCHAR guillemotleft
ENCODING 171
SWIDTH 403 0
DWIDTH 4 0
BBX 4 5 0 1
BITMAP
0124
0432
4050
1431
0224
ENDCHAR
STARTCHAR logicalnot
ENCODING 172
SWIDTH 557 0
DWIDTH 6 0
BBX 6 3 0 1
BITMAP
244444
000004
000002
ENDCHAR
STARTCHAR uni00AD
ENCODING 173
SWIDTH 286 0
DWIDTH 3 0
BBX 3 1 0 3
BITMAP
2430
ENDCHAR
STARTCHAR registered
ENCODING 174
SWIDTH 772 0
DWIDTH 8 0
BBX 8 9 0 0
BITMAP
00244400
04344051
13042104
40043104
40056003
40042204
13030304
03200151
00244400
ENDCHAR
STARTCHAR macron
ENCODING 175
SWIDTH 266 0
DWIDTH 3 0
BBX 3 1 0 7
BITMAP
1410
ENDCHAR
STARTCHAR degree
ENCODING 176
SWIDTH 350 0
DWIDTH 4 0
BBX 4 4 0 5
BITMAP
0430
4012
4012
0430
ENDCHAR
STARTCHAR plusminus
ENCODING 177
SWIDTH 577 0
DWIDTH 6 0
BBX 6 6 0 0
BITMAP
000300
000300
244643
000300
000300
244443
ENDCHAR
STARTCHAR uni00B2
ENCODING 178
SWIDTH 207 0
DWIDTH 2 0
BBX 2 4 0 4
BITMAP
35
04
13
53
ENDCHAR
STARTCHAR uni00B3
ENCODING 179
SWIDTH 214 0
DWIDTH 2 0
BBX 2 4 0 4
BITMAP
34
04
05
24
ENDCHAR
STARTCHAR acute
ENCODING 180
SWIDTH 201 0
DWIDTH 2 0
BBX 2 2 0 7
BITMAP
01
22
ENDCHAR
STARTCHAR uni00B5
ENCODING 181
SWIDTH 335 0
DWIDTH 4 0
BBX 4 8 0 -2
BITMAP
3030
4040
4040
4040
4040
4461
4000
3000
ENDCHAR
STARTCHAR paragraph
ENCODING 182
SWIDTH 471 0
DWIDTH 5 0
BBX 5 9 0 0
BITMAP
0AF630
3FF630
5FF630
2FF630
049530
000430
000430
000430
000330
ENDCHAR
STARTCHAR periodcentered
ENCODING 183
SWIDTH 181 0
DWIDTH 2 0
BBX 2 1 0 3
BITMAP
22
ENDCHAR
STARTCHAR cedilla
ENCODING 184
SWIDTH 232 0
DWIDTH 3 0
BBX 2 2 0 -2
BITMAP
15
14
ENDCHAR
STARTCHAR uni00B9
ENCODING 185
SWIDTH 176 0
DWIDTH 2 0
BBX 2 4 0 4
BITMAP
42
12
12
34
ENDCHAR
STARTCHAR ordmasculine
ENCODING 186
SWIDTH 201 0
DWIDTH 2 0
BBX 2 4 0 4
BITMAP
34
33
44
34
ENDCHAR
STARTCHAR guillemotright
ENCODING 187
SWIDTH 403 0
DWIDTH 4 0
BBX 4 5 0 0
BITMAP
3140
0423
0145
0523
3140
ENDCHAR
STARTCHAR onequarter
ENCODING 188
SWIDTH 527 0
DWIDTH 6 0
BBX 6 9 0 0
BITMAP
000040
240040
040310
040400
161200
004030
003230
030440
040461
ENDCHAR
STARTCHAR onehalf
ENCODING 189
SWIDTH 540 0
DWIDTH 6 0
BBX 6 9 0 0
BITMAP
000040
240040
040310
040400
161200
004152
003013
030040
040251
ENDCHAR
STARTCHAR threequarters
ENCODING 190
SWIDTH 517 0
DWIDTH 6 0
BBX 6 9 0 0
BITMAP
000040
340040
040310
050400
241200
004030
003040
030440
040361
ENDCHAR
STARTCHAR questiondown
ENCODING 191
SWIDTH 300 0
DWIDTH 3 0
BBX 3 9 0 -3
BITMAP
0300
0100
0200
0130
0300
0400
3100
4010
2550
ENDCHAR
STARTCHAR Agrave
ENCODING 192
SWIDTH 414 0
DWIDTH 5 0
BBX 5 10 0 0
BITMAP
022000
006000
025000
044000
041200
040400
164500
400400
400310
300030
ENDCHAR
STARTCHAR Aacute
ENCODING 193
SWIDTH 414 0
DWIDTH 5 0
BBX 5 10 0 0
BITMAP
004000
005000
025000
044000
041200
040400
164500
400400
400310
300030
ENDCHAR
STARTCHAR Acircumflex
ENCODING 194
SWIDTH 414 0
DWIDTH 5 0
BBX 5 9 0 0
BITMAP
02B000
025000
044000
041200
040400
164500
400400
400310
300030
ENDCHAR
STARTCHAR Atilde
ENCODING 195
SWIDTH 414 0
DWIDTH 5 0
BBX 5 10 0 0
BITMAP
013000
006000
025000
044000
041200
040400
164500
400400
400310
300030
ENDCHAR
STARTCHAR Adieresis
ENCODING 196
SWIDTH 414 0
DWIDTH 5 0
BBX 5 10 0 0
BITMAP
033000
016000
025000
044000
041200
040400
164500
400400
400310
300030
ENDCHAR
STARTCHAR Aring
ENCODING 197
SWIDTH 414 0
DWIDTH 5 0
BBX 5 11 0 0
BITMAP
013000
013000
006000
025000
044000
041200
040400
164500
400400
400310
300030
ENDCHAR
STARTCHAR AE
ENCODING 198
SWIDTH 545 0
DWIDTH 6 0
BBX 6 9 0 0
BITMAP
000742
003400
004400
004400
041642
064500
130400
400400
400542
ENDCHAR
STARTCHAR Ccedilla
ENCODING 199
SWIDTH 366 0
DWIDTH 4 0
BBX 4 11 0 -2
BITMAP
0442
2200
4000
4000
4000
4000
4000
2200
0443
0060
0040
ENDCHAR
STARTCHAR Egrave
ENCODING 200
SWIDTH 309 0
DWIDTH 3 0
BBX 3 10 0 0
BITMAP
0400
4440
4000
4000
4000
4430
4000
4000
4000
4440
ENDCHAR
STARTCHAR Eacute
ENCODING 201
SWIDTH 309 0
DWIDTH 3 0
BBX 3 10 0 0
BITMAP
0130
4440
4000
4000
4000
4430
4000
4000
4000
4440
ENDCHAR
STARTCHAR Ecircumflex
ENCODING 202
SWIDTH 309 0
DWIDTH 3 0
BBX 3 9 0 0
BITMAP
4860
4000
4000
4000
4430
4000
4000
4000
4440
ENDCHAR
STARTCHAR Edieresis
ENCODING 203
SWIDTH 309 0
DWIDTH 3 0
BBX 3 10 0 0
BITMAP
0330
4540
4000
4000
4000
4430
4000
4000
4000
4440
ENDCHAR
STARTCHAR Igrave
ENCODING 204
SWIDTH 141 0
DWIDTH 2 0
BBX 1 10 0 0
BITMAP
40
30
40
40
40
40
40
40
40
30
ENDCHAR
STARTCHAR Iacute
ENCODING 205
SWIDTH 141 0
DWIDTH 2 0
BBX 2 10 0 0
BITMAP
13
30
40
40
40
40
40
40
40
30
ENDCHAR
STARTCHAR Icircumflex
ENCODING 206
SWIDTH 141 0
DWIDTH 2 0
BBX 2 9 0 0
BITMAP
83
40
40
40
40
40
40
40
30
ENDCHAR
STARTCHAR Idieresis
ENCODING 207
SWIDTH 141 0
DWIDTH 2 0
BBX 2 10 0 0
BITMAP
33
41
40
40
40
40
40
40
40
30
ENDCHAR
STARTCHAR Eth
ENCODING 208
SWIDTH 396 0
DWIDTH 4 0
BBX 4 9 0 0
BITMAP
4452
4004
4004
4004
6404
4004
4004
4004
4452
ENDCHAR
STARTCHAR Ntilde
ENCODING 209
SWIDTH 422 0
DWIDTH 5 0
BBX 4 10 0 0
BITMAP
0131
4103
4404
4404
4214
4044
4044
4026
4007
3005
ENDCHAR
STARTCHAR Ograve
ENCODING 210
SWIDTH 446 0
DWIDTH 5 0
BBX 5 10 0 0
BITMAP
013000
044400
220310
400040
400040
400040
400040
400040
220310
044400
ENDCHAR
STARTCHAR Oacute
ENCODING 211
SWIDTH 446 0
DWIDTH 5 0
BBX 5 10 0 0
BITMAP
003100
043400
220310
400040
400040
400040
400040
400040
220310
044400
ENDCHAR
STARTCHAR Ocircumflex
ENCODING 212
SWIDTH 446 0
DWIDTH 5 0
BBX 5 9 0 0
BITMAP
069400
220310
400040
400040
400040
400040
400040
220310
044400
ENDCHAR
STARTCHAR Otilde
ENCODING 213
SWIDTH 446 0
DWIDTH 5 0
BBX 5 10 0 0
BITMAP
012100
044400
220310
400040
400040
400040
400040
400040
220310
044400
ENDCHAR
STARTCHAR Odieresis
ENCODING 214
SWIDTH 446 0
DWIDTH 5 0
BBX 5 10 0 0
BITMAP
023100
054400
220310
400040
400040
400040
400040
400040
220310
044400
ENDCHAR
STARTCHAR multiply
ENCODING 215
SWIDTH 445 0
DWIDTH 5 0
BBX 5 5 0 0
BITMAP
042130
004400
013420
130030
100000
ENDCHAR
STARTCHAR Oslash
ENCODING 216
SWIDTH 446 0
DWIDTH 5 0
BBX 5 9 0 0
BITMAP
044610
220610
400440
403140
404040
413040
440040
250310
254400
ENDCHAR
STARTCHAR Ugrave
ENCODING 217
SWIDTH 412 0
DWIDTH 5 0
BBX 4 10 0 0
BITMAP
0220
3003
4004
4004
4004
4004
4004
3003
4004
1543
ENDCHAR
STARTCHAR Uacute
ENCODING 218
SWIDTH 412 0
DWIDTH 5 0
BBX 4 10 0 0
BITMAP
0040
3003
4004
4004
4004
4004
4004
3003
4004
1543
ENDCHAR
STARTCHAR Ucircumflex
ENCODING 219
SWIDTH 412 0
DWIDTH 5 0
BBX 4 9 0 0
BITMAP
3253
4004
4004
4004
4004
4004
3003
4004
1543
ENDCHAR
STARTCHAR Udieresis
ENCODING 220
SWIDTH 412 0
DWIDTH 5 0
BBX 4 10 0 0
BITMAP
0330
3113
4004
4004
4004
4004
4004
3003
4004
1543
ENDCHAR
STARTCHAR Yacute
ENCODING 221
SWIDTH 370 0
DWIDTH 4 0
BBX 4 10 0 0
BITMAP
0040
3004
4004
1321
0440
0330
0120
0120
0120
0120
ENDCHAR
STARTCHAR Thorn
ENCODING 222
SWIDTH 341 0
DWIDTH 4 0
BBX 4 9 0 0
BITMAP
3000
4000
4440
4013
4004
4013
4430
4000
3000
ENDCHAR
STARTCHAR germandbls
ENCODING 223
SWIDTH 327 0
DWIDTH 4 0
BBX 3 9 0 0
BITMAP
1430
4030
4030
4350
4360
4030
4030
4030
3330
ENDCHAR
STARTCHAR agrave
ENCODING 224
SWIDTH 315 0
DWIDTH 3 0
BBX 4 9 0 0
BITMAP
0100
0400
0000
2440
0030
0150
3440
4040
4461
ENDCHAR
STARTCHAR aacute
ENCODING 225
SWIDTH 315 0
DWIDTH 3 0
BBX 4 9 0 0
BITMAP
0010
0310
0000
2440
0030
0150
3440
4040
4461
ENDCHAR
STARTCHAR acircumflex
ENCODING 226
SWIDTH 315 0
DWIDTH 3 0
BBX 4 8 0 0
BITMAP
0620
1110
2440
0030
0150
3440
4040
4461
ENDCHAR
STARTCHAR atilde
ENCODING 227
SWIDTH 315 0
DWIDTH 3 0
BBX 4 9 0 0
BITMAP
1320
2230
0000
2440
0030
0150
3440
4040
4461
ENDCHAR
STARTCHAR adieresis
ENCODING 228
SWIDTH 315 0
DWIDTH 3 0
BBX 4 9 0 0
BITMAP
0330
0330
0000
2440
0030
0150
3440
4040
4461
ENDCHAR
STARTCHAR aring
ENCODING 229
SWIDTH 315 0
DWIDTH 3 0
BBX 4 8 0 0
BITMAP
0420
0420
2440
0030
0150
3440
4040
4461
ENDCHAR
STARTCHAR ae
ENCODING 230
SWIDTH 450 0
DWIDTH 5 0
BBX 5 6 0 0
BITMAP
245420
006030
047430
404000
404010
345430
ENDCHAR
STARTCHAR ccedilla
ENCODING 231
SWIDTH 275 0
DWIDTH 3 0
BBX 3 8 0 -2
BITMAP
1430
4010
4000
4000
4010
1530
0510
0310
ENDCHAR
STARTCHAR egrave
ENCODING 232
SWIDTH 285 0
DWIDTH 3 0
BBX 3 9 0 0
BITMAP
0100
0400
0000
1530
4040
4440
4000
4010
1430
ENDCHAR
STARTCHAR eacute
ENCODING 233
SWIDTH 285 0
DWIDTH 3 0
BBX 3 9 0 0
BITMAP
0010
0310
0000
1530
4040
4440
4000
4010
1430
ENDCHAR
STARTCHAR ecircumflex
ENCODING 234
SWIDTH 285 0
DWIDTH 3 0
BBX 3 8 0 0
BITMAP
0620
1110
1530
4040
4440
4000
4010
1430
ENDCHAR
STARTCHAR edieresis
ENCODING 235
SWIDTH 285 0
DWIDTH 3 0
BBX 3 9 0 0
BITMAP
0330
0330
0000
1530
4040
4440
4000
4010
1430
ENDCHAR
STARTCHAR igrave
ENCODING 236
SWIDTH 141 0
DWIDTH 2 0
BBX 1 9 0 0
BITMAP
10
40
00
30
40
40
40
40
30
ENDCHAR
STARTCHAR iacute
ENCODING 237
SWIDTH 141 0
DWIDTH 2 0
BBX 2 9 0 0
BITMAP
01
22
00
30
40
40
40
40
30
ENDCHAR
STARTCHAR icircumflex
ENCODING 238
SWIDTH 141 0
DWIDTH 2 0
BBX 2 8 0 0
BITMAP
52
11
30
40
40
40
40
30
ENDCHAR
STARTCHAR idieresis
ENCODING 239
SWIDTH 141 0
DWIDTH 2 0
BBX 2 9 0 0
BITMAP
33
33
00
30
40
40
40
40
30
ENDCHAR
STARTCHAR eth
ENCODING 240
SWIDTH 319 0
DWIDTH 4 0
BBX 3 9 0 0
BITMAP
1300
0650
0040
1460
4030
4030
4030
4030
1430
ENDCHAR
STARTCHAR ntilde
ENCODING 241
SWIDTH 307 0
DWIDTH 3 0
BBX 3 9 0 0
BITMAP
1320
2230
0000
4440
4030
4040
4040
4040
3030
ENDCHAR
STARTCHAR ograve
ENCODING 242
SWIDTH 309 0
DWIDTH 3 0
BBX 3 9 0 0
BITMAP
0100
0400
0000
1430
4030
4030
4030
4030
1430
ENDCHAR
STARTCHAR oacute
ENCODING 243
SWIDTH 309 0
DWIDTH 3 0
BBX 3 9 0 0
BITMAP
0010
0310
0000
1430
4030
4030
4030
4030
1430
ENDCHAR
STARTCHAR ocircumflex
ENCODING 244
SWIDTH 309 0
DWIDTH 3 0
BBX 3 8 0 0
BITMAP
0520
0110
1430
4030
4030
4030
4030
1430
ENDCHAR
STARTCHAR otilde
ENCODING 245
SWIDTH 309 0
DWIDTH 3 0
BBX 3 9 0 0
BITMAP
1420
2130
0000
1430
4030
4030
4030
4030
1430
ENDCHAR
STARTCHAR odieresis
ENCODING 246
SWIDTH 309 0
DWIDTH 3 0
BBX 3 9 0 0
BITMAP
0330
0330
0000
1430
4030
4030
4030
4030
1430
ENDCHAR
STARTCHAR divide
ENCODING 247
SWIDTH 577 0
DWIDTH 6 0
BBX 6 6 0 0
BITMAP
000300
000100
144443
000000
000100
000300
ENDCHAR
STARTCHAR oslash
ENCODING 248
SWIDTH 309 0
DWIDTH 3 0
BBX 3 6 0 0
BITMAP
1460
4070
4340
4430
4340
4430
ENDCHAR
STARTCHAR ugrave
ENCODING 249
SWIDTH 307 0
DWIDTH 3 0
BBX 3 9 0 0
BITMAP
0100
0400
0000
3030
4040
4040
4040
3040
3460
ENDCHAR
STARTCHAR uacute
ENCODING 250
SWIDTH 307 0
DWIDTH 3 0
BBX 3 9 0 0
BITMAP
0010
0310
0000
3030
4040
4040
4040
3040
3460
ENDCHAR
STARTCHAR ucircumflex
ENCODING 251
SWIDTH 307 0
DWIDTH 3 0
BBX 3 8 0 0
BITMAP
0620
1110
3030
4040
4040
4040
3040
3460
ENDCHAR
STARTCHAR udieresis
ENCODING 252
SWIDTH 307 0
DWIDTH 3 0
BBX 3 9 0 0
BITMAP
0330
0330
0000
3030
4040
4040
4040
3040
3460
ENDCHAR
STARTCHAR yacute
ENCODING 253
SWIDTH 285 0
DWIDTH 3 0
BBX 3 11 0 -2
BITMAP
0010
0300
0000
3030
4040
3040
1420
0700
0500
0400
4200
ENDCHAR
STARTCHAR thorn
ENCODING 254
SWIDTH 299 0
DWIDTH 3 0
BBX 3 11 0 -2
BITMAP
3000
4000
4000
6430
4030
4030
4030
4030
4430
4000
3000
ENDCHAR
STARTCHAR ydieresis
ENCODING 255
SWIDTH 285 0
DWIDTH 3 0
BBX 3 11 0 -2
BITMAP
1130
1230
0000
3030
4040
3040
1420
0700
0500
0400
4200
ENDCHAR
STARTCHAR dotlessi
ENCODING 305
SWIDTH 141 0
DWIDTH 2 0
BBX 1 6 0 0
BITMAP
30
40
40
40
40
30
ENDCHAR
STARTCHAR OE
ENCODING 338
SWIDTH 505 0
DWIDTH 6 0
BBX 5 9 0 0
BITMAP
046440
223100
403100
403100
403440
403100
403100
223100
046440
ENDCHAR
STARTCHAR oe
ENCODING 339
SWIDTH 492 0
DWIDTH 5 0
BBX 5 6 0 0
BITMAP
143440
405230
405440
405000
405210
143440
ENDCHAR
STARTCHAR Wcircumflex
ENCODING 372
SWIDTH 534 0
DWIDTH 6 0
BBX 6 9 0 0
BITMAP
304303
300004
300003
304313
304422
304331
214430
143440
060070
ENDCHAR
STARTCHAR wcircumflex
ENCODING 373
SWIDTH 396 0
DWIDTH 4 0
BBX 4 8 0 0
BITMAP
0350
0110
3003
4134
4344
4154
4354
3316
ENDCHAR
STARTCHAR Ycircumflex
ENCODING 374
SWIDTH 370 0
DWIDTH 4 0
BBX 4 9 0 0
BITMAP
3444
4004
1321
0440
0330
0120
0120
0120
0120
ENDCHAR
STARTCHAR ycircumflex
ENCODING 375
SWIDTH 285 0
DWIDTH 3 0
BBX 3 10 0 -2
BITMAP
0610
1010
3030
4040
3040
1420
0700
0500
0400
4200
ENDCHAR
STARTCHAR Ydieresis
ENCODING 376
SWIDTH 370 0
DWIDTH 4 0
BBX 4 10 0 0
BITMAP
0330
3114
4004
1321
0440
0330
0120
0120
0120
0120
ENDCHAR
STARTCHAR uni0237
ENCODING 567
SWIDTH 141 0
DWIDTH 2 0
BBX 2 8 -1 -2
BITMAP
03
04
04
04
04
04
04
34
ENDCHAR
STARTCHAR circumflex
ENCODING 710
SWIDTH 280 0
DWIDTH 3 0
BBX 3 2 0 6
BITMAP
0610
1010
ENDCHAR
STARTCHAR ring
ENCODING 730
SWIDTH 238 0
DWIDTH 3 0
BBX 2 2 0 6
BITMAP
14
14
ENDCHAR
STARTCHAR tilde
ENCODING 732
SWIDTH 301 0
DWIDTH 3 0
BBX 3 2 0 7
BITMAP
1320
2230
ENDCHAR
STARTCHAR gravecomb
ENCODING 768
SWIDTH 0 0
DWIDTH 0 0
BBX 2 2 0 7
BITMAP
10
13
ENDCHAR
STARTCHAR acutecomb
ENCODING 769
SWIDTH 0 0
DWIDTH 0 0
BBX 2 2 0 7
BITMAP
01
22
ENDCHAR
STARTCHAR uni0302
ENCODING 770
SWIDTH 0 0
DWIDTH 0 0
BBX 3 2 0 6
BITMAP
0610
1010
ENDCHAR
STARTCHAR tildecomb
ENCODING 771
SWIDTH 0 0
DWIDTH 0 0
BBX 3 2 0 7
BITMAP
1320
2230
ENDCHAR
STARTCHAR uni0307
ENCODING 775
SWIDTH 0 0
DWIDTH 0 0
BBX 1 2 0 7
BITMAP
30
30
ENDCHAR
STARTCHAR uni0308
ENCODING 776
SWIDTH 0 0
DWIDTH 0 0
BBX 2 2 0 7
BITMAP
33
33
ENDCHAR
STARTCHAR uni030A
ENCODING 778
SWIDTH 0 0
DWIDTH 0 0
BBX 2 2 0 6
BITMAP
14
14
ENDCHAR
STARTCHAR uni0327
ENCODING 807
SWIDTH 0 0
DWIDTH 0 0
BBX 2 2 0 -2
BITMAP
15
14
ENDCHAR
STARTCHAR Wgrave
ENCODING 7808
SWIDTH 534 0
DWIDTH 6 0
BBX 6 10 0 0
BITMAP
004000
300003
300004
300003
304313
304422
304331
214430
143440
060070
ENDCHAR
STARTCHAR wgrave
ENCODING 7809
SWIDTH 396 0
DWIDTH 4 0
BBX 4 9 0 0
BITMAP
0100
0220
0000
3003
4134
4344
4154
4354
3316
ENDCHAR
STARTCHAR Wacute
ENCODING 7810
SWIDTH 534 0
DWIDTH 6 0
BBX 6 10 0 0
BITMAP
000400
300003
300004
300003
304313
304422
304331
214430
143440
060070
ENDCHAR
STARTCHAR wacute
ENCODING 7811
SWIDTH 396 0
DWIDTH 4 0
BBX 4 9 0 0
BITMAP
0010
0040
0000
3003
4134
4344
4154
4354
3316
ENDCHAR
STARTCHAR Wdieresis
ENCODING 7812
SWIDTH 534 0
DWIDTH 6 0
BBX 6 10 0 0
BITMAP
003300
301103
300004
300003
304313
304422
304331
214430
143440
060070
ENDCHAR
STARTCHAR wdieresis
ENCODING 7813
SWIDTH 396 0
DWIDTH 4 0
BBX 4 9 0 0
BITMAP
0330
0330
0000
3003
4134
4344
4154
4354
3316
ENDCHAR
STARTCHAR uni1E9E
ENCODING 7838
SWIDTH 375 0
DWIDTH 4 0
BBX 4 9 0 0
BITMAP
1440
3003
4003
4361
4343
4003
4003
4003
3341
ENDCHAR
STARTCHAR Ygrave
ENCODING 7922
SWIDTH 370 0
DWIDTH 4 0
BBX 4 10 0 0
BITMAP
0400
3004
4004
1321
0440
0330
0120
0120
0120
0120
ENDCHAR
STARTCHAR ygrave
ENCODING 7923
SWIDTH 285 0
DWIDTH 3 0
BBX 3 11 0 -2
BITMAP
0100
0400
0000
3030
4040
3040
1420
0700
0500
0400
4200
ENDCHAR
STARTCHAR endash
ENCODING 8211
SWIDTH 425 0
DWIDTH 5 0
BBX 5 1 0 3
BITMAP
244410
ENDCHAR
STARTCHAR emdash
ENCODING 8212
SWIDTH 770 0
DWIDTH 8 0
BBX 8 1 0 3
BITMAP
24444444
ENDCHAR
STARTCHAR quoteleft
ENCODING 8216
SWIDTH 145 0
DWIDTH 2 0
BBX 2 3 0 6
BITMAP
31
40
10
ENDCHAR
STARTCHAR quoteright
ENCODING 8217
SWIDTH 145 0
DWIDTH 2 0
BBX 2 3 0 4
BITMAP
10
31
40
ENDCHAR
STARTCHAR quotesinglbase
ENCODING 8218
SWIDTH 145 0
DWIDTH 2 0
BBX 1 3 0 -2
BITMAP
10
40
40
ENDCHAR
STARTCHAR quotedblleft
ENCODING 8220
SWIDTH 219 0
DWIDTH 2 0
BBX 2 3 0 6
BITMAP
35
44
11
ENDCHAR
STARTCHAR quotedblright
ENCODING 8221
SWIDTH 219 0
DWIDTH 2 0
BBX 2 3 0 4
BITMAP
12
34
44
ENDCHAR
STARTCHAR quotedblbase
ENCODING 8222
SWIDTH 219 0
DWIDTH 2 0
BBX 2 3 0 -2
BITMAP
11
44
44
ENDCHAR
STARTCHAR bullet
ENCODING 8226
SWIDTH 355 0
DWIDTH 4 0
BBX 4 3 0 3
BITMAP
1CC0
4FF3
1CB0
ENDCHAR
STARTCHAR ellipsis
ENCODING 8230
SWIDTH 651 0
DWIDTH 7 0
BBX 7 2 0 0
BITMAP
00010010
22030030
ENDCHAR
STARTCHAR guilsinglleft
ENCODING 8249
SWIDTH 263 0
DWIDTH 3 0
BBX 3 5 0 1
BITMAP
0120
0400
4000
1400
0220
ENDCHAR
STARTCHAR guilsinglright
ENCODING 8250
SWIDTH 263 0
DWIDTH 3 0
BBX 3 5 0 0
BITMAP
3100
0400
0140
0500
3100
ENDCHAR
STARTCHAR fraction
ENCODING 8260
SWIDTH 152 0
DWIDTH 2 0
BBX 4 9 -1 0
BITMAP
0004
0013
0040
0040
0300
0400
2200
4000
3000
ENDCHAR
STARTCHAR uni2074
ENCODING 8308
SWIDTH 247 0
DWIDTH 3 0
BBX 3 4 0 4
BITMAP
0300
1400
4400
4610
ENDCHAR
STARTCHAR Euro
ENCODING 8364
SWIDTH 391 0
DWIDTH 4 0
BBX 4 9 0 0
BITMAP
0344
0400
1300
3100
6420
6420
2100
0400
0343
ENDCHAR
STARTCHAR trademark
ENCODING 8482
SWIDTH 506 0
DWIDTH 6 0
BBX 5 4 0 3
BITMAP
BF6490
044660
044650
022010
ENDCHAR
STARTCHAR minus
ENCODING 8722
SWIDTH 557 0
DWIDTH 6 0
BBX 6 1 0 3
BITMAP
7DDDD9
ENDCHAR
STARTCHAR uni2215
ENCODING 8725
SWIDTH 259 0
DWIDTH 3 0
BBX 3 8 0 0
BITMAP
0030
0030
0310
0400
0400
2100
4000
3000
ENDCHAR
STARTCHAR .notdef
ENCODING -1
SWIDTH 500 0
DWIDTH 6 0
BBX 5 10 0 -2
BITMAP
5988A0
710080
710080
710080
710080
710080
710080
710080
710080
5988A0
ENDCHAR
STARTCHAR NULL
ENCODING -1
SWIDTH 600 0
DWIDTH 7 0
BBX 1 1 0 0
BITMAP
00
ENDCHAR
STARTCHAR acutecomb.case
ENCODING -1
SWIDTH 0 0
DWIDTH 0 0
BBX 2 1 0 9
BITMAP
22
ENDCHAR
STARTCHAR uni0302.case
ENCODING -1
SWIDTH 0 0
DWIDTH 0 0
BBX 3 1 0 8
BITMAP
1510
ENDCHAR
STARTCHAR uni0308.case
ENCODING -1
SWIDTH 0 0
DWIDTH 0 0
BBX 2 2 0 8
BITMAP
33
11
ENDCHAR
STARTCHAR uni0307.case
ENCODING -1
SWIDTH 0 0
DWIDTH 0 0
BBX 1 2 0 8
BITMAP
30
10
ENDCHAR
STARTCHAR gravecomb.case
ENCODING -1
SWIDTH 0 0
DWIDTH 0 0
BBX 2 1 0 9
BITMAP
22
ENDCHAR
STARTCHAR uni030A.case
ENCODING -1
SWIDTH 0 0
DWIDTH 0 0
BBX 2 2 0 9
BITMAP
13
13
ENDCHAR
STARTCHAR tildecomb.case
ENCODING -1
SWIDTH 0 0
DWIDTH 0 0
BBX 3 1 0 9
BITMAP
1220
ENDCHAR
ENDFONT
